<svg xmlns="http://www.w3.org/2000/svg" width="1080" height="2400" viewBox="0 0 1080 2400">
  <rect width="100%" height="100%" fill="#0B0B0D"/>
  <!-- App bar -->
  <rect x="0" y="0" width="1080" height="144" fill="#141418"/>
  <text x="24" y="88" font-family="Inter,Roboto,Arial" font-size="40" fill="#FFFFFF">Home · Live &amp; News</text>
  <!-- Search -->
  <rect x="24" y="168" width="1032" height="96" fill="#1A1A1F"/>
  <text x="48" y="230" font-family="Inter,Roboto,Arial" font-size="28" fill="#B8B8BE">Search…</text>
  <!-- Live carousel -->
  <text x="24" y="320" font-family="Inter,Roboto,Arial" font-size="32" fill="#FFFFFF">Live &amp; Starting Soon</text>
  <rect x="24" y="360" width="480" height="240" fill="#1A1A1F"/>
  <text x="48" y="480" font-family="Inter,Roboto,Arial" font-size="28" fill="#FFFFFF">LIVE: Match 1</text>
  <rect x="576" y="360" width="480" height="240" fill="#1A1A1F"/>
  <text x="600" y="480" font-family="Inter,Roboto,Arial" font-size="28" fill="#FFFFFF">Soon: Match 2</text>
  <!-- News feed -->
  <rect x="24" y="648" width="1032" height="240" fill="#1A1A1F"/>
  <rect x="24" y="912" width="1032" height="240" fill="#1A1A1F"/>
  <rect x="24" y="1176" width="1032" height="240" fill="#1A1A1F"/>
  <rect x="24" y="1440" width="1032" height="240" fill="#1A1A1F"/>
  <text x="48" y="784" font-family="Inter,Roboto,Arial" font-size="28" fill="#FFFFFF">News item 1</text>
  <text x="48" y="1048" font-family="Inter,Roboto,Arial" font-size="28" fill="#FFFFFF">News item 2</text>
  <text x="48" y="1312" font-family="Inter,Roboto,Arial" font-size="28" fill="#FFFFFF">News item 3</text>
  <text x="48" y="1576" font-family="Inter,Roboto,Arial" font-size="28" fill="#FFFFFF">News item 4</text>
  <!-- Bottom nav -->
  <rect x="0" y="2256" width="1080" height="144" fill="#141418"/>
  <text x="120" y="2340" font-family="Inter,Roboto,Arial" font-size="28" fill="#B8B8BE">Home   Explore   Live   Profile</text>
</svg>
